<svg width="238" height="116" viewBox="0 0 238 116" fill="none" xmlns="http://www.w3.org/2000/svg">
<g clip-path="url(#clip0)">
<path d="M2.62038 71.864C2.62038 68.1307 3.66571 64.8827 5.75638 62.12C7.84704 59.2827 10.759 57.1173 14.4924 55.624C18.3004 54.056 22.6684 53.272 27.5964 53.272C30.2097 53.272 32.8604 53.496 35.5484 53.944C38.311 54.3173 40.7377 54.8773 42.8284 55.624V51.928C42.8284 47.8213 41.5964 44.6107 39.1324 42.296C36.6684 39.9813 33.1217 38.824 28.4924 38.824C25.2817 38.824 22.183 39.384 19.1964 40.504C16.2097 41.624 13.111 43.2667 9.90038 45.432L5.75638 37.144C9.63904 34.6053 13.5217 32.7013 17.4044 31.432C21.3617 30.088 25.5057 29.416 29.8364 29.416C37.6764 29.416 43.8364 31.5067 48.3164 35.688C52.871 39.7947 55.1484 45.656 55.1484 53.272V75.112C55.1484 76.5307 55.3724 77.5387 55.8204 78.136C56.343 78.7333 57.2017 79.0693 58.3964 79.144V89C57.2764 89.224 56.2684 89.3733 55.3724 89.448C54.4764 89.5227 53.7297 89.56 53.1324 89.56C50.4444 89.56 48.4284 88.9253 47.0844 87.656C45.815 86.312 45.0684 84.8187 44.8444 83.176L44.5084 79.816C41.9697 83.1013 38.7217 85.64 34.7644 87.432C30.807 89.224 26.8124 90.12 22.7804 90.12C18.8977 90.12 15.4257 89.336 12.3644 87.768C9.30304 86.1253 6.91371 83.9227 5.19638 81.16C3.47904 78.3973 2.62038 75.2987 2.62038 71.864ZM39.9164 75.448C41.8577 73.5067 42.8284 71.6773 42.8284 69.96V63.24C38.423 61.5973 33.943 60.776 29.3884 60.776C24.9084 60.776 21.2497 61.7093 18.4124 63.576C15.6497 65.368 14.2684 67.7947 14.2684 70.856C14.2684 73.3947 15.2764 75.7467 17.2924 77.912C19.383 80.0027 22.3697 81.048 26.2524 81.048C28.8657 81.048 31.4044 80.5253 33.8684 79.48C36.3324 78.4347 38.3484 77.0907 39.9164 75.448ZM103.023 41.064C98.2445 41.2133 93.9885 42.3333 90.2551 44.424C86.5965 46.44 83.9831 49.352 82.4151 53.16V89H70.0951V30.424H81.5191V43.528C83.5351 39.496 86.1858 36.2853 89.4711 33.896C92.7565 31.432 96.2285 30.088 99.8871 29.864C100.559 29.864 101.156 29.864 101.679 29.864C102.202 29.864 102.65 29.9013 103.023 29.976V41.064ZM134.404 89.56C129.103 89.56 124.436 88.1787 120.404 85.416C116.447 82.6533 113.311 79.032 110.996 74.552C108.756 69.9973 107.636 65.0693 107.636 59.768C107.636 54.2427 108.793 49.1653 111.108 44.536C113.423 39.9067 116.596 36.248 120.628 33.56C124.735 30.7973 129.476 29.416 134.852 29.416C139.556 29.416 143.663 30.536 147.172 32.776C150.756 35.016 153.705 37.928 156.02 41.512V30.424H166.884V87.32C166.884 92.9947 165.503 97.8107 162.74 101.768C160.052 105.725 156.356 108.749 151.652 110.84C146.948 112.931 141.647 113.976 135.748 113.976C129.252 113.976 123.839 112.856 119.508 110.616C115.252 108.376 111.668 105.315 108.756 101.432L115.7 94.936C117.94 98.072 120.815 100.461 124.324 102.104C127.908 103.747 131.716 104.568 135.748 104.568C139.108 104.568 142.207 103.933 145.044 102.664C147.956 101.469 150.271 99.6027 151.988 97.064C153.705 94.5253 154.564 91.2773 154.564 87.32V78.36C152.473 81.8693 149.599 84.632 145.94 86.648C142.281 88.5893 138.436 89.56 134.404 89.56ZM138.436 79.592C140.9 79.592 143.252 79.0693 145.492 78.024C147.732 76.904 149.636 75.448 151.204 73.656C152.847 71.864 153.967 69.96 154.564 67.944V52.6C153.071 48.8667 150.719 45.8427 147.508 43.528C144.372 41.1387 141.049 39.944 137.54 39.944C133.956 39.944 130.857 40.9147 128.244 42.856C125.705 44.7973 123.727 47.336 122.308 50.472C120.889 53.5333 120.18 56.744 120.18 60.104C120.18 63.688 120.964 66.9733 122.532 69.96C124.175 72.872 126.377 75.224 129.14 77.016C131.903 78.7333 135.001 79.592 138.436 79.592ZM181.098 66.264V30.424H193.418V63.8C193.418 74.328 197.151 79.592 204.618 79.592C208.127 79.592 211.45 78.5093 214.586 76.344C217.722 74.104 220.148 70.968 221.866 66.936V30.424H234.186V75.112C234.186 76.5307 234.447 77.5387 234.97 78.136C235.492 78.7333 236.351 79.0693 237.546 79.144V89C236.276 89.224 235.231 89.3733 234.41 89.448C233.588 89.5227 232.804 89.56 232.058 89.56C229.818 89.56 227.951 88.9627 226.458 87.768C224.964 86.5733 224.106 84.968 223.882 82.952L223.658 77.128C221.044 81.384 217.647 84.632 213.466 86.872C209.284 89.0373 204.692 90.12 199.69 90.12C193.567 90.12 188.938 88.104 185.802 84.072C182.666 80.04 181.098 74.104 181.098 66.264Z" fill="black"/>
<rect opacity="0.6" x="1.76123" y="95.9678" width="98.8541" height="9.84124" fill="#097B1B"/>
<rect x="1.76123" y="12.9927" width="234.773" height="9.84124" fill="#2D7080"/>
<rect x="178.268" y="95.9678" width="58.266" height="9.84124" fill="#B33A00"/>
</g>
<defs>
<clipPath id="clip0">
<rect width="238" height="116" fill="white" transform="translate(238 116) rotate(-180)"/>
</clipPath>
</defs>
</svg>
